<svg width="110" height="60" viewBox="0 0 110 60" fill="none" xmlns="http://www.w3.org/2000/svg">
<g clip-path="url(#clip0_50_217)">
<path d="M34.1754 29.1869V58.1169H0L0.955625 56.9169L11.6675 43.6592L0 29.1869H34.1754Z" fill="#B23B39"/>
<path d="M19.167 46.7211H34.1712V57.896L19.167 46.7211Z" fill="#8F302E"/>
<path d="M98.3324 43.6592L110 58.1169H75.8247V29.1869H110L108.973 30.4616L98.3324 43.6592Z" fill="#B23B39"/>
<path d="M90.8334 46.7211H75.8291V57.896L90.8334 46.7211Z" fill="#8F302E"/>
<path d="M90.7301 14.5946H19.27V46.7938H90.7301V14.5946Z" fill="#D04C4A"/>
<path opacity="0.06" d="M98.3325 43.6593L110 58.1169H75.8248V46.7938H45.0728L75.6964 14.5946H90.7301V29.1869H110L108.973 30.4616L98.3325 43.6593Z" fill="#040000"/>
</g>
<ellipse cx="55.0001" cy="28.3784" rx="27.8986" ry="28.3784" fill="#6496FF"/>
<path d="M79.5438 28.2936C79.5438 42.1286 68.5179 53.3441 54.9169 53.3441C41.3159 53.3441 30.29 42.1286 30.29 28.2936C30.29 14.4587 41.3159 3.24323 54.9169 3.24323C68.5179 3.24323 79.5438 14.4587 79.5438 28.2936Z" fill="#EFBF04"/>
<ellipse cx="55.0002" cy="28.3784" rx="23.1159" ry="23.5135" fill="#D7E4ED"/>
<path d="M52.719 36.6064L47.9363 38.2878C47.8922 38.3103 47.8701 38.3103 47.8701 38.3103C47.9142 38.3103 47.9583 38.3327 48.0024 38.3551C48.0465 38.3999 48.0685 38.4224 48.0906 38.4672V38.3775L48.2228 33.4676C48.2669 32.1673 47.6938 30.4186 46.9004 29.3873L43.8367 25.4639C43.8147 25.419 43.7927 25.3966 43.7927 25.3966C43.7927 25.4414 43.7927 25.5087 43.7706 25.576C43.7486 25.6432 43.7265 25.6881 43.6825 25.7105C43.6825 25.7105 43.7045 25.7105 43.7486 25.6881L48.6195 24.2756C49.8538 23.9169 51.3085 22.8632 52.0578 21.7871L54.879 17.7067C54.9011 17.6619 54.9231 17.6394 54.9231 17.6394C54.9011 17.6619 54.857 17.6619 54.8129 17.6619C54.7688 17.6619 54.7247 17.6394 54.7027 17.6394C54.7027 17.6394 54.7247 17.6619 54.7468 17.7067L57.568 21.7871C58.2953 22.8408 59.772 23.9169 61.0063 24.2756L65.8772 25.6881C65.9213 25.7105 65.9433 25.7105 65.9433 25.7105C65.9213 25.6881 65.8772 25.6208 65.8552 25.576C65.8331 25.5087 65.8331 25.4414 65.8331 25.3966C65.8331 25.3966 65.8331 25.419 65.789 25.4639L62.7254 29.3873C61.932 30.4186 61.3589 32.1449 61.403 33.4676L61.4691 35.9338L61.5352 38.3999V38.4896C61.5573 38.4672 61.5793 38.4224 61.6234 38.3775C61.6675 38.3551 61.7116 38.3327 61.7556 38.3327C61.7556 38.3327 61.7336 38.3327 61.6895 38.3103L56.9067 36.6288C55.7166 36.1804 53.9092 36.1804 52.719 36.6064ZM60.8299 40.8212C62.6152 41.449 64.2462 40.2383 64.2021 38.3103L64.136 35.8441L64.0699 33.378C64.0478 32.7054 64.4225 31.5844 64.8193 31.0463L67.8829 27.1229C69.0731 25.5984 68.4559 23.6255 66.6045 23.0874L61.7336 21.675C61.0944 21.4956 60.1246 20.8006 59.7279 20.2401L56.9067 16.1598C55.8268 14.5904 53.799 14.5904 52.719 16.1598L49.8979 20.2401C49.5011 20.8006 48.5534 21.4956 47.8922 21.675L43.0212 23.0874C41.1698 23.6255 40.5527 25.5984 41.7429 27.1229L44.8065 31.0463C45.2253 31.5844 45.5779 32.7054 45.5559 33.378L45.4237 38.2878C45.3796 40.2159 46.9885 41.4266 48.7958 40.7988L53.5786 39.1174C54.2178 38.8932 55.408 38.8932 56.0472 39.1174L60.8299 40.8212Z" fill="#0C92F2"/>
<path d="M54.7913 33.49C53.028 33.49 51.0223 34.342 51.0223 34.342C51.0223 34.342 51.3529 32.3691 50.824 30.5979C50.295 28.8268 48.8403 27.1901 48.8403 27.1901C48.8403 27.1901 51.1546 26.5624 52.5872 25.4638C54.0198 24.3653 54.7913 22.7735 54.7913 22.7735C54.7913 22.7735 55.8272 24.3653 57.2157 25.4638C58.6263 26.54 60.7422 27.1901 60.7422 27.1901C60.7422 27.1901 59.53 28.5577 58.9789 30.3737C58.4279 32.1897 58.5602 34.342 58.5602 34.342C58.5602 34.342 56.5545 33.49 54.7913 33.49Z" fill="#A8C8E6"/>
<path d="M54.7913 33.4901C53.0941 33.3331 51.0223 34.342 51.0223 34.342C51.0223 34.342 51.3529 32.3691 50.824 30.598C50.295 28.8268 48.8403 27.1902 48.8403 27.1902L54.8133 28.4233C54.9235 32.8847 54.8574 31.8759 54.7913 33.4901Z" fill="#61B6F2"/>
<path d="M54.8793 33.4901C56.5764 33.3331 58.6482 34.342 58.6482 34.342C58.6482 34.342 58.3176 32.3691 58.8466 30.598C59.3756 28.8268 60.8302 27.1902 60.8302 27.1902L54.8573 28.4233C54.7471 32.8847 54.8132 31.8759 54.8793 33.4901Z" fill="#FC830A"/>
<defs>
<clipPath id="clip0_50_217">
<rect width="110" height="45.4054" fill="white" transform="translate(0 14.5946)"/>
</clipPath>
</defs>
</svg>
