<svg width="110" height="60" viewBox="0 0 110 60" fill="none" xmlns="http://www.w3.org/2000/svg">
<g clip-path="url(#clip0_50_216)">
<path d="M34.1754 29.1869V58.1169H0L0.955624 56.9169L11.6675 43.6592L0 29.1869H34.1754Z" fill="#B23B39"/>
<path d="M19.167 46.721H34.1713V57.8959L19.167 46.721Z" fill="#8F302E"/>
<path d="M98.3328 43.6592L110 58.1169H75.8252V29.1869H110L108.973 30.4616L98.3328 43.6592Z" fill="#B23B39"/>
<path d="M90.8339 46.721H75.8296V57.8959L90.8339 46.721Z" fill="#8F302E"/>
<path d="M90.7295 14.5946H19.2695V46.7938H90.7295V14.5946Z" fill="#D04C4A"/>
<path opacity="0.06" d="M98.3325 43.6593L110 58.117H75.8249V46.7938H45.0728L75.6964 14.5946H90.7301V29.1869H110L108.973 30.4617L98.3325 43.6593Z" fill="#040000"/>
<path d="M55.0001 56.7568C70.4081 56.7568 82.8987 44.0513 82.8987 28.3784C82.8987 12.7054 70.4081 0 55.0001 0C39.5922 0 27.1016 12.7054 27.1016 28.3784C27.1016 44.0513 39.5922 56.7568 55.0001 56.7568Z" fill="#6496FF"/>
<path d="M79.5437 28.2937C79.5437 42.1286 68.5179 53.344 54.917 53.344C41.3159 53.344 30.29 42.1286 30.29 28.2937C30.29 14.4587 41.3159 3.24323 54.917 3.24323C68.5179 3.24323 79.5437 14.4587 79.5437 28.2937Z" fill="#EFBF04"/>
<path d="M55.0002 51.8919C67.7668 51.8919 78.1162 41.3645 78.1162 28.3784C78.1162 15.3922 67.7668 4.86487 55.0002 4.86487C42.2336 4.86487 31.8843 15.3922 31.8843 28.3784C31.8843 41.3645 42.2336 51.8919 55.0002 51.8919Z" fill="#D7E4ED"/>
</g>
<g clip-path="url(#clip1_50_216)">
<path fill-rule="evenodd" clip-rule="evenodd" d="M68.7999 36.8394C67.0519 43.5299 60.6754 47.8457 53.9333 46.9015C47.1912 45.9573 42.1985 40.0493 42.293 33.1272C42.2666 31.9866 42.4518 30.8511 42.8388 29.7802C44.1419 21.3806 52.1789 20.7716 47.6945 8.10809C47.6945 8.10809 55.1779 10.0849 56.6971 22.0079C56.6971 22.0079 62.2325 21.8213 58.4976 13.6678C64.4292 17.5488 68.3806 23.8889 69.3007 31.0016C69.3313 32.9599 69.1635 34.9161 68.7999 36.8394Z" fill="#091853"/>
<path fill-rule="evenodd" clip-rule="evenodd" d="M63.6741 38.442C63.6041 43.0231 60.0098 46.741 55.5079 46.889C51.006 47.037 47.1832 43.563 46.8225 38.996L46.7943 39.0143C46.7943 39.0143 46.7099 35.2689 46.7943 34.4356C47.5641 26.8682 49.7202 23.4891 52.4209 18.4102C52.4963 15.3894 51.1662 26.7354 58.0475 29.8569C61.4422 31.3165 63.6553 34.6932 63.6741 38.442Z" fill="#17E5E8"/>
</g>
<defs>
<clipPath id="clip0_50_216">
<rect width="110" height="60" fill="white"/>
</clipPath>
<clipPath id="clip1_50_216">
<rect width="38.2609" height="38.9189" fill="white" transform="translate(36.6665 8.10809)"/>
</clipPath>
</defs>
</svg>
