<svg width="110" height="60" viewBox="0 0 110 60" fill="none" xmlns="http://www.w3.org/2000/svg">
<g clip-path="url(#clip0_50_220)">
<path d="M34.1754 28.596V53.9858H0L0.955624 52.9326L11.6675 41.2974L0 28.596H34.1754Z" fill="#B5A53D"/>
<path d="M19.167 43.9846H34.1713V53.7919L19.167 43.9846Z" fill="#917130"/>
<path d="M98.3328 41.2974L110 53.9858H75.8252V28.596H110L108.973 29.7149L98.3328 41.2974Z" fill="#B5A53D"/>
<path d="M90.8334 43.9846H75.8291V53.7919L90.8334 43.9846Z" fill="#917130"/>
<path d="M90.7295 15.7895H19.2695V44.0484H90.7295V15.7895Z" fill="#D4B94E"/>
<path opacity="0.06" d="M98.3325 41.2974L110 53.9858H75.8249V44.0484H45.0728L75.6964 15.7895H90.7301V28.596H110L108.973 29.7149L98.3325 41.2974Z" fill="#040000"/>
<path d="M55.0001 55.2632C70.4081 55.2632 82.8987 42.8921 82.8987 27.6316C82.8987 12.3711 70.4081 0 55.0001 0C39.5922 0 27.1016 12.3711 27.1016 27.6316C27.1016 42.8921 39.5922 55.2632 55.0001 55.2632Z" fill="#6496FF"/>
<path d="M79.5437 27.5492C79.5437 41.0199 68.5179 51.9403 54.917 51.9403C41.3159 51.9403 30.29 41.0199 30.29 27.5492C30.29 14.0782 41.3159 3.1579 54.917 3.1579C68.5179 3.1579 79.5437 14.0782 79.5437 27.5492Z" fill="#EFBF04"/>
<path d="M55.0002 50.5263C67.7668 50.5263 78.1162 40.276 78.1162 27.6316C78.1162 14.9871 67.7668 4.73682 55.0002 4.73682C42.2336 4.73682 31.8843 14.9871 31.8843 27.6316C31.8843 40.276 42.2336 50.5263 55.0002 50.5263Z" fill="#D7E4ED"/>
<g clip-path="url(#clip1_50_220)">
<path d="M63.195 31.2631C59.6081 31.2631 58.6665 28.3322 58.6665 28.3322C58.6665 28.3322 59.6081 24.6464 63.195 24.6464C65.6611 24.6464 69.6964 27.977 69.6964 27.977C69.6964 27.977 65.6611 31.2631 63.195 31.2631Z" fill="#95F542"/>
<path d="M49.5197 17.1859C52.3445 20.028 50.6855 23.2253 50.6855 23.2253C50.6855 23.2253 47.2331 25.1793 44.4083 22.3372C42.4803 20.3832 41.8975 14.6546 41.8975 14.6546C41.8975 14.6546 47.5918 15.2319 49.5197 17.1859Z" fill="#95F542"/>
<path d="M69.6963 27.977C67.4545 27.5329 65.1678 27.2665 62.9259 27.5329C60.7289 27.755 58.4871 28.5543 57.0075 30.0642C56.2452 30.8191 55.7072 31.7073 55.4382 32.6842C55.3933 32.9063 55.3485 33.1727 55.3036 33.3948C55.2588 33.6612 55.3036 33.8388 55.3036 34.1497L55.3933 35.8372L55.7072 42.6316H53.4653L53.824 35.8372L53.9137 34.1497C53.9137 33.8833 53.9585 33.528 54.0034 33.2171C54.0482 32.9063 54.1379 32.5954 54.2276 32.2846C54.6311 31.0856 55.3933 30.0642 56.3349 29.3092C57.2765 28.5099 58.3526 27.977 59.4735 27.5773C60.5944 27.2221 61.7602 27.0444 62.9259 27C65.2126 26.9112 67.4993 27.3553 69.6963 27.977Z" fill="#487021"/>
<path d="M41.8975 14.6546C44.229 16.0757 46.3812 17.852 48.2643 19.8503C50.1475 21.8487 51.8513 24.0247 53.2412 26.4227C53.9138 27.6217 54.5863 28.8651 54.9899 30.2862C55.0795 30.6414 55.1692 30.9967 55.214 31.3964L55.2589 32.4622L55.3485 34.5049L55.7072 42.6316H53.4654L53.8241 34.4605L53.9138 32.4178L53.9586 31.9293V31.4408C53.9586 31.1743 53.9138 30.8635 53.8241 30.5526C53.5551 29.3092 53.017 28.0658 52.3893 26.8668C51.1787 24.4687 49.6094 22.2484 47.8608 20.1612C46.157 18.074 44.1841 16.2089 41.8975 14.6546Z" fill="#487021"/>
</g>
</g>
<defs>
<clipPath id="clip0_50_220">
<rect width="110" height="60" fill="white"/>
</clipPath>
<clipPath id="clip1_50_220">
<rect width="28.6957" height="28.4211" fill="white" transform="translate(41.4492 14.2105)"/>
</clipPath>
</defs>
</svg>
