<svg width="110" height="60" viewBox="0 0 110 60" fill="none" xmlns="http://www.w3.org/2000/svg">
<g clip-path="url(#clip0_50_219)">
<path d="M34.1754 28.5961V53.9858H0L0.955625 52.9327L11.6675 41.2974L0 28.5961H34.1754Z" fill="#B5A53D"/>
<path d="M19.167 43.9845H34.1712V53.7919L19.167 43.9845Z" fill="#917130"/>
<path d="M98.3324 41.2974L110 53.9858H75.8247V28.5961H110L108.973 29.7148L98.3324 41.2974Z" fill="#B5A53D"/>
<path d="M90.8329 43.9845H75.8286V53.7919L90.8329 43.9845Z" fill="#917130"/>
<path d="M90.7301 15.7895H19.27V44.0483H90.7301V15.7895Z" fill="#D4B94E"/>
<path opacity="0.06" d="M98.3325 41.2974L110 53.9858H75.8248V44.0483H45.0728L75.6964 15.7895H90.7301V28.5961H110L108.973 29.7148L98.3325 41.2974Z" fill="#040000"/>
</g>
<ellipse cx="55.0001" cy="27.6316" rx="27.8986" ry="27.6316" fill="#6496FF"/>
<path d="M79.5438 27.5491C79.5438 41.02 68.5179 51.9403 54.9169 51.9403C41.3159 51.9403 30.29 41.02 30.29 27.5491C30.29 14.0782 41.3159 3.1579 54.9169 3.1579C68.5179 3.1579 79.5438 14.0782 79.5438 27.5491Z" fill="#EFBF04"/>
<ellipse cx="55.0002" cy="27.6316" rx="23.1159" ry="22.8947" fill="#D7E4ED"/>
<g clip-path="url(#clip1_50_219)">
<path d="M54.9999 42.6316C63.3642 42.6316 70.1448 35.9159 70.1448 27.6316C70.1448 19.3473 63.3642 12.6316 54.9999 12.6316C46.6356 12.6316 39.855 19.3473 39.855 27.6316C39.855 35.9159 46.6356 42.6316 54.9999 42.6316Z" fill="#DD2E44"/>
<path d="M54.9998 38.8816C61.273 38.8816 66.3585 33.8448 66.3585 27.6316C66.3585 21.4184 61.273 16.3816 54.9998 16.3816C48.7266 16.3816 43.6411 21.4184 43.6411 27.6316C43.6411 33.8448 48.7266 38.8816 54.9998 38.8816Z" fill="white"/>
<path d="M54.9998 35.9649C59.6466 35.9649 63.4136 32.234 63.4136 27.6316C63.4136 23.0292 59.6466 19.2983 54.9998 19.2983C50.3529 19.2983 46.5859 23.0292 46.5859 27.6316C46.5859 32.234 50.3529 35.9649 54.9998 35.9649Z" fill="#DD2E44"/>
<path d="M55 32.6316C57.7881 32.6316 60.0483 30.393 60.0483 27.6316C60.0483 24.8702 57.7881 22.6316 55 22.6316C52.2119 22.6316 49.9517 24.8702 49.9517 27.6316C49.9517 30.393 52.2119 32.6316 55 32.6316Z" fill="white"/>
<path d="M54.9997 30.1316C56.3938 30.1316 57.5239 29.0123 57.5239 27.6316C57.5239 26.2509 56.3938 25.1316 54.9997 25.1316C53.6057 25.1316 52.4756 26.2509 52.4756 27.6316C52.4756 29.0123 53.6057 30.1316 54.9997 30.1316Z" fill="#DD2E44"/>
<path opacity="0.2" d="M55.2017 27.8666L66.2608 37.6616C66.2608 37.6616 64.0337 40.4749 59.6223 41.9191L54.6455 27.9816L55.2017 27.8666Z" fill="black"/>
<path d="M55.2473 28.4649C55.0814 28.4655 54.9192 28.4171 54.7811 28.3261C54.643 28.2351 54.5354 28.1054 54.4719 27.9537C54.4084 27.8019 54.3919 27.6349 54.4245 27.4738C54.4571 27.3127 54.5373 27.1649 54.655 27.0491L55.1287 26.5799C55.2857 26.4243 55.4986 26.3369 55.7207 26.3368C55.9428 26.3367 56.1558 26.424 56.3129 26.5795C56.47 26.735 56.5583 26.9459 56.5584 27.1659C56.5585 27.3858 56.4703 27.5968 56.3133 27.7524L55.8388 28.2216C55.7614 28.2989 55.6692 28.3602 55.5677 28.402C55.4662 28.4438 55.3573 28.4652 55.2473 28.4649Z" fill="#FFAC33"/>
<path d="M60.0618 18.4491C59.7228 20.1816 60.0618 22.3582 60.0618 22.3582L65.997 16.2016C66.2418 14.9899 65.5527 12.9249 64.5515 12.6699C63.5502 12.4149 61.1195 13.3391 60.0618 18.4491ZM64.2713 22.6182C62.522 22.9541 60.3243 22.6182 60.3243 22.6182L66.5405 16.7399C67.7639 16.4974 69.8488 17.1799 70.1063 18.1716C70.3637 19.1632 69.4307 21.5707 64.2713 22.6182Z" fill="#55ACEE"/>
<path d="M67.4509 16.3691L57.6724 27.2874C57.3678 27.5891 56.2647 28.0224 55.5605 27.3258C54.8571 26.6291 55.2079 25.5924 55.5125 25.2899L66.6238 15.5491C66.6238 15.5491 67.1926 15.0199 67.599 15.4224C68.0054 15.8249 67.4509 16.3691 67.4509 16.3691Z" fill="#3A87C2"/>
</g>
<defs>
<clipPath id="clip0_50_219">
<rect width="110" height="44.2105" fill="white" transform="translate(0 15.7895)"/>
</clipPath>
<clipPath id="clip1_50_219">
<rect width="30.2899" height="30" fill="white" transform="translate(39.855 12.6316)"/>
</clipPath>
</defs>
</svg>
