<svg width="110" height="60" viewBox="0 0 110 60" fill="none" xmlns="http://www.w3.org/2000/svg">
<g clip-path="url(#clip0_50_354)">
<path d="M34.1754 29.1869V58.1169H0L0.955624 56.9169L11.6675 43.6592L0 29.1869H34.1754Z" fill="#B23B39"/>
<path d="M19.167 46.721H34.1713V57.8959L19.167 46.721Z" fill="#8F302E"/>
<path d="M98.3328 43.6592L110 58.1169H75.8252V29.1869H110L108.973 30.4616L98.3328 43.6592Z" fill="#B23B39"/>
<path d="M90.8339 46.721H75.8296V57.8959L90.8339 46.721Z" fill="#8F302E"/>
<path d="M90.7295 14.5946H19.2695V46.7938H90.7295V14.5946Z" fill="#D04C4A"/>
<path opacity="0.06" d="M98.3325 43.6593L110 58.117H75.8249V46.7938H45.0728L75.6964 14.5946H90.7301V29.1869H110L108.973 30.4617L98.3325 43.6593Z" fill="#040000"/>
<path d="M55.0001 56.7568C70.4081 56.7568 82.8987 44.0513 82.8987 28.3784C82.8987 12.7054 70.4081 0 55.0001 0C39.5922 0 27.1016 12.7054 27.1016 28.3784C27.1016 44.0513 39.5922 56.7568 55.0001 56.7568Z" fill="#6496FF"/>
<path d="M79.5437 28.2937C79.5437 42.1286 68.5179 53.344 54.917 53.344C41.3159 53.344 30.29 42.1286 30.29 28.2937C30.29 14.4587 41.3159 3.24323 54.917 3.24323C68.5179 3.24323 79.5437 14.4587 79.5437 28.2937Z" fill="#EFBF04"/>
<path d="M55.0002 51.8919C67.7668 51.8919 78.1162 41.3645 78.1162 28.3784C78.1162 15.3922 67.7668 4.86487 55.0002 4.86487C42.2336 4.86487 31.8843 15.3922 31.8843 28.3784C31.8843 41.3645 42.2336 51.8919 55.0002 51.8919Z" fill="#D7E4ED"/>
</g>
<g clip-path="url(#clip1_50_354)">
<path d="M50.8734 25.6298H44.2158V32.283H50.8734V25.6298Z" fill="#17E5E8"/>
<path d="M57.5311 32.283H50.8735V38.9362H57.5311V32.283Z" fill="#17E5E8"/>
<path d="M64.1893 32.283H57.5317V38.9362H64.1893V32.283Z" fill="#17E5E8"/>
<path d="M64.1895 29.3371C64.6712 29.3371 65.0617 28.9399 65.0617 28.4499V25.6297C65.0617 25.1397 64.6712 24.7426 64.1895 24.7426H57.5317H50.8738H44.2159C43.7342 24.7426 43.3438 25.1397 43.3438 25.6297V32.283C43.3438 32.773 43.7342 33.1702 44.2159 33.1702H50.0015V38.0489H45.0881V35.7871C45.0881 35.2971 44.6977 34.8999 44.2159 34.8999C43.7342 34.8999 43.3438 35.2971 43.3438 35.7871V38.9361C43.3438 39.4261 43.7342 39.8233 44.2159 39.8233H50.8738H57.5316H64.1895C64.6712 39.8233 65.0617 39.4261 65.0617 38.9361V32.283C65.0617 31.793 64.6712 31.3958 64.1895 31.3958H58.4039V26.5169H63.3173V28.4499C63.3173 28.9398 63.7077 29.3371 64.1895 29.3371ZM56.6594 31.3958H51.746V26.5169H56.6594V31.3958ZM45.0881 26.5169H50.0015V31.3958H45.0881V26.5169ZM51.746 33.1702H56.6594V38.049H51.746V33.1702ZM63.3173 38.049H58.4039V33.1702H63.3173V38.049Z" fill="#091853"/>
<path d="M67.6784 22.9799C68.1602 22.9799 68.5506 22.5827 68.5506 22.0927V17.6555C68.5506 17.1655 68.1602 16.7683 67.6784 16.7683H62.7941V15.8816C62.7941 15.3916 62.4036 14.9944 61.9219 14.9944C61.4402 14.9944 61.0497 15.3916 61.0497 15.8816V16.7683H47.356V15.8816C47.356 15.3916 46.9655 14.9944 46.4838 14.9944C46.0021 14.9944 45.6116 15.3916 45.6116 15.8816V16.7683H40.7272C40.2455 16.7683 39.855 17.1655 39.855 17.6555V22.0927V42.4969C39.855 42.9869 40.2455 43.3841 40.7272 43.3841H67.6784C68.1601 43.3841 68.5506 42.9869 68.5506 42.4969V25.6297C68.5506 25.1397 68.1601 24.7426 67.6784 24.7426C67.1967 24.7426 66.8062 25.1397 66.8062 25.6297V41.6096H41.5994V22.9799H61.9219C62.4036 22.9799 62.7941 22.5827 62.7941 22.0927C62.7941 21.6027 62.4036 21.2055 61.9219 21.2055H41.5994V18.5427H45.6116V18.9863C45.6116 19.4763 46.0021 19.8735 46.4838 19.8735C46.9655 19.8735 47.356 19.4763 47.356 18.9863V18.5427H61.0496V18.9863C61.0496 19.4763 61.4401 19.8735 61.9218 19.8735C62.4035 19.8735 62.794 19.4763 62.794 18.9863V18.5427H66.8062V22.0927C66.8062 22.5827 67.1967 22.9799 67.6784 22.9799Z" fill="#091853"/>
</g>
<defs>
<clipPath id="clip0_50_354">
<rect width="110" height="60" fill="white"/>
</clipPath>
<clipPath id="clip1_50_354">
<rect width="28.6957" height="29.1892" fill="white" transform="translate(39.855 14.5946)"/>
</clipPath>
</defs>
</svg>
