<svg width="110" height="60" viewBox="0 0 110 60" fill="none" xmlns="http://www.w3.org/2000/svg">
<g clip-path="url(#clip0_50_235)">
<path d="M34.1754 28.5389V53.8153H0L0.955625 52.7668L11.6675 41.1835L0 28.5389H34.1754Z" fill="#3DB1A1"/>
<path d="M19.167 43.8586H34.1712V53.6222L19.167 43.8586Z" fill="#2F8F74"/>
<path d="M98.3324 41.1835L110 53.8153H75.8247V28.5389H110L108.973 29.6526L98.3324 41.1835Z" fill="#3DB1A1"/>
<path d="M90.8329 43.8586H75.8286V53.6222L90.8329 43.8586Z" fill="#2F8F74"/>
<path d="M90.7301 15.7895H19.27V43.9222H90.7301V15.7895Z" fill="#52BCA7"/>
<path opacity="0.06" d="M98.3325 41.1835L110 53.8153H75.8248V43.9222H45.0728L75.6964 15.7895H90.7301V28.5389H110L108.973 29.6526L98.3325 41.1835Z" fill="#040000"/>
</g>
<ellipse cx="56.5944" cy="27.6316" rx="27.8986" ry="27.6316" fill="#6496FF"/>
<path d="M81.1375 27.5491C81.1375 41.02 70.1117 51.9403 56.5107 51.9403C42.9096 51.9403 31.8838 41.02 31.8838 27.5491C31.8838 14.0782 42.9096 3.1579 56.5107 3.1579C70.1117 3.1579 81.1375 14.0782 81.1375 27.5491Z" fill="#EFBF04"/>
<ellipse cx="56.5945" cy="27.6316" rx="23.1159" ry="22.8947" fill="#D7E4ED"/>
<g clip-path="url(#clip1_50_235)">
<path d="M56.5941 46.2319C66.7193 46.2319 74.9274 38.0238 74.9274 27.8986C74.9274 17.7733 66.7193 9.56522 56.5941 9.56522C46.4689 9.56522 38.2607 17.7733 38.2607 27.8986C38.2607 38.0238 46.4689 46.2319 56.5941 46.2319Z" fill="#324A5E"/>
<path d="M69.5579 40.8622C72.2236 38.1966 73.896 34.9141 74.5767 31.4744L69.5318 26.4296C69.5318 26.4664 62.8302 26.4661 58.604 26.4625L53.9616 21.8201C53.9495 21.8322 53.8221 21.8786 53.6404 21.9406L52.8701 21.1703C52.8701 21.1703 45.229 30.5532 45.2874 30.4946L60.5865 45.7936C63.8743 45.0635 67.0001 43.42 69.5579 40.8622Z" fill="#2B3B4E"/>
<path d="M60.8575 19.0898L48.5132 31.4341C47.9605 31.9868 47.9605 32.8831 48.5132 33.4358C49.066 33.9887 49.9622 33.9885 50.5149 33.4358C49.9622 33.9885 49.9622 34.8848 50.5149 35.4376C51.0676 35.9904 51.9639 35.9904 52.5166 35.4376C51.9639 35.9904 51.9639 36.8866 52.5166 37.4393C53.0693 37.9921 53.9655 37.9921 54.5183 37.4393C53.9655 37.9921 53.9655 38.8883 54.5183 39.441C55.071 39.9938 55.9672 39.9938 56.52 39.441L63.998 31.963C64.8429 31.118 64.8429 29.748 63.998 28.903L67.3343 25.5667L60.8575 19.0898Z" fill="#EABC92"/>
<path d="M67.3344 25.5669L64.5086 22.7411L51.4028 35.8468C51.8017 35.8786 52.2114 35.7428 52.5164 35.4377C51.9637 35.9906 51.9637 36.8867 52.5164 37.4394C53.0692 37.9923 53.9654 37.9923 54.5181 37.4394C53.9654 37.9923 53.9654 38.8884 54.5181 39.4411C55.0709 39.994 55.9671 39.994 56.5198 39.4411L63.9978 31.9631C64.8427 31.1181 64.8427 29.7481 63.9978 28.9031L67.3344 25.5669Z" fill="#DBAA82"/>
<path d="M51.2925 20.4857L63.6368 32.8301C64.1895 33.3828 64.1895 34.279 63.6368 34.8318C63.084 35.3846 62.1878 35.3845 61.6351 34.8318C62.1878 35.3845 62.1878 36.2807 61.6351 36.8336C61.0824 37.3863 60.1861 37.3863 59.6334 36.8336C60.1861 37.3863 60.1861 38.2826 59.6334 38.8353C59.0807 39.388 58.1844 39.388 57.6317 38.8353C58.1844 39.388 58.1844 40.2843 57.6317 40.837C57.079 41.3897 56.1827 41.3897 55.63 40.837L48.1517 33.359C47.3068 32.5141 47.3068 31.144 48.1517 30.299L44.8154 26.9627L51.2925 20.4857Z" fill="#F4E3C3"/>
<path d="M44.8154 26.9628L48.1517 30.2991C47.3067 31.1441 47.3067 32.514 48.1517 33.3591L55.6297 40.8371C56.1825 41.39 57.0787 41.39 57.6314 40.8371C58.1842 40.2842 58.1842 39.3881 57.6314 38.8354C58.1842 39.3883 59.0804 39.3881 59.6331 38.8354C60.1289 38.3396 60.1785 37.5682 59.785 37.0155L47.274 24.5042L44.8154 26.9628Z" fill="#FED8B2"/>
<path d="M42.6177 27.8259L45.2866 30.4948L53.9612 21.8203L51.2922 19.1513L42.6177 27.8259Z" fill="#84DBFF"/>
<path d="M45.2874 30.4951L49.2759 26.5067L46.6069 23.8377L42.6185 27.8262L45.2874 30.4951Z" fill="#31BAFD"/>
<path d="M59.9773 25.1414L57.8692 27.2495C57.2871 27.8316 56.3433 27.8316 55.7611 27.2495L52.5989 30.4117C52.0168 30.9938 51.073 30.9938 50.4908 30.4117C49.9087 29.8296 49.9087 28.8858 50.4908 28.3036L59.9773 18.817V25.1414Z" fill="#EABC92"/>
<path d="M60.8565 17.7547L58.1875 20.4237L66.8621 29.0982L69.531 26.4293L60.8565 17.7547Z" fill="#B5F1F4"/>
<path d="M62.5081 24.7429L66.8638 29.0986L69.5327 26.4296L65.177 22.074L62.5081 24.7429Z" fill="#84DBFF"/>
<path d="M55.4439 40.6515L56.4666 39.6288C57.0195 39.0759 57.0193 38.1798 56.4666 37.6271C55.9137 37.0742 55.0176 37.0742 54.4649 37.6271C55.0176 37.0744 55.0176 36.1781 54.4649 35.6254C53.9122 35.0727 53.0159 35.0725 52.4632 35.6254C53.0161 35.0725 53.0159 34.1764 52.4632 33.6236C51.9105 33.0707 51.0142 33.0707 50.4615 33.6236C51.0142 33.0707 51.0142 32.1746 50.4615 31.6219C49.9088 31.069 49.0125 31.069 48.4598 31.6219L47.6143 32.4674C47.7147 32.7938 47.8935 33.1011 48.1518 33.3594L55.4439 40.6515Z" fill="#EABC92"/>
<path d="M54.4653 37.627C55.018 37.0742 55.018 36.178 54.4653 35.6253C53.9126 35.0724 53.0163 35.0724 52.4636 35.6253C52.7992 35.2896 52.9297 34.8276 52.8578 34.3924L51.0215 36.2287L55.4443 40.6515L56.4671 39.6288C57.0198 39.0759 57.0198 38.1798 56.4671 37.6271C55.9143 37.0742 55.018 37.0742 54.4653 37.627Z" fill="#DBAA82"/>
</g>
<defs>
<clipPath id="clip0_50_235">
<rect width="110" height="44.2105" fill="white" transform="translate(0 15.7895)"/>
</clipPath>
<clipPath id="clip1_50_235">
<rect width="36.6667" height="36.6667" fill="white" transform="translate(38.2607 9.56522)"/>
</clipPath>
</defs>
</svg>
